# xmcd CD database file
#
# Track frame offsets:
#	183
#	18783
#	50733
#	72783
#	100458
#	132633
#	168258
#	188283
#	209283
#	237558
#	297933
#	327558
#
# Disc length: 4756 seconds
#
# Revision: 2
# Processed by: cddbd v1.5.2PL0 Copyright (c) Steve Scherf et al.
# Submitted via: CDex 1.51
#
DISCID=b112920c
DTITLE=Eric Clapton - The Blue Sheriff
DYEAR=1990
DGENRE=Rock
TTITLE0=Tulsa Time
TTITLE1=I Shot The sheriff
TTITLE2=Lay Down Sally
TTITLE3=Worried Life Blues
TTITLE4=Let It Rain
TTITLE5=Double Trouble
TTITLE6=Sweet Eliza
TTITLE7=Wonderful Tonight
TTITLE8=Blues Power
TTITLE9=Have You Ever Loved A Woman
TTITLE10=Cocaine
TTITLE11=Layla
EXTD=RECORDED LIVE IN BREMEN YEAR: 1990
EXTT0=
EXTT1=
EXTT2=
EXTT3=
EXTT4=
EXTT5=
EXTT6=
EXTT7=
EXTT8=
EXTT9=
EXTT10=
EXTT11=
PLAYORDER=
